<?xml version="1.0" encoding="UTF-8"?>
<!-- Generated by Pixelmator Pro 3.6.4 -->
<svg width="494" height="638" viewBox="0 0 494 638" xmlns="http://www.w3.org/2000/svg">
    <path id="Path" fill="#1e3a8a" stroke="none" d="M 319.299988 -0.601013 C 495.644989 -0.601013 252.233994 208.321991 407.893005 318.698975 C 563.552002 429.075989 495.644989 637.998962 319.299988 637.998962 C 142.955002 637.998962 0 495.044006 0 318.698975 C 0 142.354004 142.955994 -0.601013 319.299988 -0.601013 Z"/>
    <clipPath id="clipPath1">
        <path d="M 319.299988 -0.601 C 495.644989 -0.601 252.233994 208.322004 407.893005 318.698988 C 563.552002 429.076002 495.644989 637.998976 319.299988 637.998976 C 142.955002 637.998976 0 495.043989 0 318.698988 C 0 142.354017 142.955994 -0.601 319.299988 -0.601 Z"/>
    </clipPath>
    <g id="Group" clip-path="url(#clipPath1)">
        <linearGradient id="linearGradient1" x1="247.417851" y1="638" x2="247.417851" y2="-0.6" gradientUnits="userSpaceOnUse">
            <stop offset="1e-05" stop-color="#dddff9" stop-opacity="1"/>
            <stop offset="1" stop-color="#1e3a8a" stop-opacity="1"/>
        </linearGradient>
        <path id="path1" fill="url(#linearGradient1)" stroke="none" opacity="0.3" d="M 175.536011 638 C -0.808989 638 242.602005 429.076996 86.942993 318.700012 C -68.716003 208.322998 -0.808989 -0.599976 175.536011 -0.599976 C 351.881012 -0.599976 494.835999 142.355011 494.835999 318.700012 C 494.835999 495.044983 351.880005 638 175.536011 638 Z"/>
    </g>
</svg>
