<?xml version="1.0" encoding="UTF-8"?>
<!-- Generated by Pixelmator Pro 3.6.4 -->
<svg width="494" height="638" viewBox="0 0 494 638" xmlns="http://www.w3.org/2000/svg">
    <path id="Path" fill="#1e3a8a" stroke="none" d="M 175.535995 -0.601013 C -0.809 -0.601013 242.600006 208.321991 86.943001 318.698975 C -68.713997 429.075989 -0.809 637.998962 175.535995 637.998962 C 351.881012 637.998962 494.835999 495.04303 494.835999 318.698975 C 494.835999 142.35498 351.881012 -0.601013 175.535995 -0.601013 Z"/>
    <clipPath id="clipPath1">
        <path d="M 175.535991 -0.601 C -0.809 -0.601 242.600001 208.322004 86.943004 318.698988 C -68.713994 429.076002 -0.809 637.998976 175.535991 637.998976 C 351.881007 637.998976 494.835994 495.043012 494.835994 318.698988 C 494.835994 142.354994 351.881007 -0.601 175.535991 -0.601 Z"/>
    </clipPath>
    <g id="Group" clip-path="url(#clipPath1)">
        <linearGradient id="linearGradient1" x1="247.418149" y1="637.999" x2="247.418149" y2="-0.601" gradientUnits="userSpaceOnUse">
            <stop offset="1e-05" stop-color="#dddff9" stop-opacity="1"/>
            <stop offset="1" stop-color="#1e3a8a" stop-opacity="1"/>
        </linearGradient>
        <path id="path1" fill="url(#linearGradient1)" stroke="none" opacity="0.3" d="M 319.299988 637.998962 C 495.644989 637.998962 252.233994 429.077026 407.893005 318.698975 C 563.552002 208.320984 495.644989 -0.601013 319.299988 -0.601013 C 142.955002 -0.601013 0 142.35498 0 318.698975 C 0 495.04303 142.955994 637.998962 319.299988 637.998962 Z"/>
    </g>
</svg>
