<?xml version="1.0" encoding="UTF-8"?>
<!-- Generated by Pixelmator Pro 3.6.4 -->
<svg width="1692" height="517" viewBox="0 0 1692 517" xmlns="http://www.w3.org/2000/svg">
    <clipPath id="clipPath1">
        <path d="M 0 0 L 1692 0 L 1692 517 L 0 517 Z"/>
    </clipPath>
    <g id="Group" clip-path="url(#clipPath1)">
        <path id="Path" fill="#1e3a8a" stroke="none" d="M -21.41 552 C 40.799999 472.989014 136.429993 319.689941 230.199997 246.51001 C 577.760986 -24.16803 734.252014 278.456055 1296.483032 42.117004 C 1652.935059 -107.721008 1702.042969 281.303955 1690.265991 550.852051 Z"/>
        <path id="path1" fill="#ffffff" stroke="none" opacity="0.05" d="M 243.485001 724.434021 C 202.084991 538.722961 339.944 476.457001 471.511993 380.166992 C 727.059998 193.542999 841.768005 370.310974 1255.155029 207.367035 C 1668.542114 44.423004 1519.725098 724.437927 1519.725098 724.437927 Z"/>
        <linearGradient id="linearGradient1" x1="883.160733" y1="-3.860692" x2="892.329349" y2="626.27875" gradientUnits="userSpaceOnUse">
            <stop offset="1e-05" stop-color="#344987" stop-opacity="1"/>
            <stop offset="1" stop-color="#1e3a8a" stop-opacity="1"/>
        </linearGradient>
        <path id="path2" fill="url(#linearGradient1)" stroke="none" d="M 1656.317017 724.432922 C 1697.717041 538.722961 1559.858032 476.456024 1428.290039 380.166992 C 1172.742065 193.544037 1058.033081 370.310974 644.647034 207.363007 C 231.261002 44.415009 380.076996 724.432922 380.076996 724.432922 Z"/>
    </g>
</svg>
