<?xml version="1.0" encoding="UTF-8"?>
<!-- Generated by Pixelmator Pro 3.6.4 -->
<svg width="1170" height="256" viewBox="0 0 1170 256" xmlns="http://www.w3.org/2000/svg">
    <path id="Path" fill="#1e3a8a" stroke="none" d="M 29 0 L 1141 0 C 1157.016235 0 1170 12.983749 1170 29 L 1170 227 C 1170 243.016251 1157.016235 256 1141 256 L 29 256 C 12.983743 256 0 243.016251 0 227 L 0 29 C -0 12.983749 12.983743 0 29 0 Z"/>
    <clipPath id="clipPath1">
        <path d="M 29 0 L 1141 0 C 1157.016235 0 1170 12.983749 1170 29 L 1170 227 C 1170 243.016251 1157.016235 256 1141 256 L 29 256 C 12.983743 256 0 243.016251 0 227 L 0 29 C -0 12.983749 12.983743 0 29 0 Z"/>
    </clipPath>
    <g id="Group" clip-path="url(#clipPath1)">
        <linearGradient id="linearGradient1" x1="592.02" y1="229.861301" x2="585" y2="-36.331" gradientUnits="userSpaceOnUse">
            <stop offset="1e-05" stop-color="#314787" stop-opacity="1"/>
            <stop offset="1" stop-color="#1e3a8a" stop-opacity="1"/>
        </linearGradient>
        <path id="path1" fill="url(#linearGradient1)" stroke="none" d="M 0 106.438995 L 9.75 120.716003 C 19.5 134.992996 39 163.546997 58.5 144.541 C 78 125.177994 97.5 59.147003 117 44.60199 C 136.5 30.593002 156 68.070007 175.5 82.615005 C 195 96.624008 214.5 87.701004 234 82.615005 C 253.5 77.886002 273 77.886002 292.5 68.337997 C 312 59.147003 331.5 39.515991 351 63.608994 C 370.5 87.701996 390 153.731995 409.5 187.372009 C 429 220.654999 448.5 220.654999 468 192.101013 C 487.5 163.546997 507 106.438995 526.5 77.884995 C 546 49.330994 565.5 49.330994 585 39.785004 C 604.5 30.593994 624 10.962997 643.5 35.056 C 663 59.149002 682.5 125.180008 702 158.820007 C 721.5 192.102997 741 192.102997 760.5 163.548996 C 780 134.994995 799.5 77.886993 819 58.880997 C 838.5 39.51799 858 59.149002 877.5 87.434998 C 897 116.257004 916.5 153.735001 936 182.556 C 955.5 210.84201 975 230.472992 994.5 196.833008 C 1014 163.550003 1033.5 77.888 1053 68.339996 C 1072.5 59.149002 1092 125.180008 1111.5 125.447998 C 1131 125.180008 1150.5 59.147995 1160.25 25.509003 L 1170 -7.777008 L 1170 -36.330994 L 0 -36.330994 Z"/>
    </g>
</svg>
