<?xml version="1.0" encoding="UTF-8"?>
<!-- Generated by Pixelmator Pro 3.6.4 -->
<svg width="370" height="160" viewBox="0 0 370 160" xmlns="http://www.w3.org/2000/svg">
    <g id="Group">
        <path id="Path" fill="#34d399" stroke="none" d="M 370 5 C 370 7.761429 367.761414 10 365 10 C 362.238586 10 360 7.761429 360 5 C 360 2.238571 362.238586 0 365 0 C 367.761414 0 370 2.238571 370 5 Z"/>
        <path id="path1" fill="#34d399" stroke="none" d="M 340 5 C 340 7.761429 337.761414 10 335 10 C 332.238586 10 330 7.761429 330 5 C 330 2.238571 332.238586 0 335 0 C 337.761414 0 340 2.238571 340 5 Z"/>
        <path id="path2" fill="#34d399" stroke="none" d="M 310 5 C 310 7.761429 307.761414 10 305 10 C 302.238586 10 300 7.761429 300 5 C 300 2.238571 302.238586 0 305 0 C 307.761414 0 310 2.238571 310 5 Z"/>
        <path id="path3" fill="#34d399" stroke="none" d="M 280 5 C 280 7.761429 277.761414 10 275 10 C 272.238586 10 270 7.761429 270 5 C 270 2.238571 272.238586 0 275 0 C 277.761414 0 280 2.238571 280 5 Z"/>
        <path id="path4" fill="#34d399" stroke="none" d="M 250 5 C 250 7.761429 247.761429 10 245 10 C 242.238571 10 240 7.761429 240 5 C 240 2.238571 242.238571 0 245 0 C 247.761429 0 250 2.238571 250 5 Z"/>
        <path id="path5" fill="#34d399" stroke="none" d="M 220 5 C 220 7.761429 217.761429 10 215 10 C 212.238571 10 210 7.761429 210 5 C 210 2.238571 212.238571 0 215 0 C 217.761429 0 220 2.238571 220 5 Z"/>
        <path id="path6" fill="#34d399" stroke="none" d="M 190 5 C 190 7.761429 187.761429 10 185 10 C 182.238571 10 180 7.761429 180 5 C 180 2.238571 182.238571 0 185 0 C 187.761429 0 190 2.238571 190 5 Z"/>
        <path id="path7" fill="#34d399" stroke="none" d="M 160 5 C 160 7.761429 157.761429 10 155 10 C 152.238571 10 150 7.761429 150 5 C 150 2.238571 152.238571 0 155 0 C 157.761429 0 160 2.238571 160 5 Z"/>
        <path id="path8" fill="#34d399" stroke="none" d="M 130 5 C 130 7.761429 127.761421 10 125 10 C 122.238579 10 120 7.761429 120 5 C 120 2.238571 122.238579 0 125 0 C 127.761421 0 130 2.238571 130 5 Z"/>
        <path id="path9" fill="#34d399" stroke="none" d="M 100 5 C 100 7.761429 97.761421 10 95 10 C 92.238579 10 90 7.761429 90 5 C 90 2.238571 92.238579 0 95 0 C 97.761421 0 100 2.238571 100 5 Z"/>
        <path id="path10" fill="#34d399" stroke="none" d="M 70 5 C 70 7.761429 67.761421 10 65 10 C 62.238575 10 60 7.761429 60 5 C 60 2.238571 62.238575 0 65 0 C 67.761421 0 70 2.238571 70 5 Z"/>
        <path id="path11" fill="#34d399" stroke="none" d="M 40 5 C 40 7.761429 37.761425 10 35 10 C 32.238575 10 30 7.761429 30 5 C 30 2.238571 32.238575 0 35 0 C 37.761425 0 40 2.238571 40 5 Z"/>
        <path id="path12" fill="#34d399" stroke="none" d="M 10 5 C 10 7.761429 7.761424 10 5 10 C 2.238576 10 0 7.761429 0 5 C -0 2.238571 2.238576 0 5 0 C 7.761424 0 10 2.238571 10 5 Z"/>
        <path id="path13" fill="#34d399" stroke="none" d="M 370 35 C 370 37.761429 367.761414 40 365 40 C 362.238586 40 360 37.761429 360 35 C 360 32.238571 362.238586 30 365 30 C 367.761414 30 370 32.238571 370 35 Z"/>
        <path id="path14" fill="#34d399" stroke="none" d="M 340 35 C 340 37.761429 337.761414 40 335 40 C 332.238586 40 330 37.761429 330 35 C 330 32.238571 332.238586 30 335 30 C 337.761414 30 340 32.238571 340 35 Z"/>
        <path id="path15" fill="#34d399" stroke="none" d="M 310 35 C 310 37.761429 307.761414 40 305 40 C 302.238586 40 300 37.761429 300 35 C 300 32.238571 302.238586 30 305 30 C 307.761414 30 310 32.238571 310 35 Z"/>
        <path id="path16" fill="#34d399" stroke="none" d="M 280 35 C 280 37.761429 277.761414 40 275 40 C 272.238586 40 270 37.761429 270 35 C 270 32.238571 272.238586 30 275 30 C 277.761414 30 280 32.238571 280 35 Z"/>
        <path id="path17" fill="#34d399" stroke="none" d="M 250 35 C 250 37.761429 247.761429 40 245 40 C 242.238571 40 240 37.761429 240 35 C 240 32.238571 242.238571 30 245 30 C 247.761429 30 250 32.238571 250 35 Z"/>
        <path id="path18" fill="#34d399" stroke="none" d="M 220 35 C 220 37.761429 217.761429 40 215 40 C 212.238571 40 210 37.761429 210 35 C 210 32.238571 212.238571 30 215 30 C 217.761429 30 220 32.238571 220 35 Z"/>
        <path id="path19" fill="#34d399" stroke="none" d="M 190 35 C 190 37.761429 187.761429 40 185 40 C 182.238571 40 180 37.761429 180 35 C 180 32.238571 182.238571 30 185 30 C 187.761429 30 190 32.238571 190 35 Z"/>
        <path id="path20" fill="#34d399" stroke="none" d="M 160 35 C 160 37.761429 157.761429 40 155 40 C 152.238571 40 150 37.761429 150 35 C 150 32.238571 152.238571 30 155 30 C 157.761429 30 160 32.238571 160 35 Z"/>
        <path id="path21" fill="#34d399" stroke="none" d="M 130 35 C 130 37.761429 127.761421 40 125 40 C 122.238579 40 120 37.761429 120 35 C 120 32.238571 122.238579 30 125 30 C 127.761421 30 130 32.238571 130 35 Z"/>
        <path id="path22" fill="#34d399" stroke="none" d="M 100 35 C 100 37.761429 97.761421 40 95 40 C 92.238579 40 90 37.761429 90 35 C 90 32.238571 92.238579 30 95 30 C 97.761421 30 100 32.238571 100 35 Z"/>
        <path id="path23" fill="#34d399" stroke="none" d="M 70 35 C 70 37.761429 67.761421 40 65 40 C 62.238575 40 60 37.761429 60 35 C 60 32.238571 62.238575 30 65 30 C 67.761421 30 70 32.238571 70 35 Z"/>
        <path id="path24" fill="#34d399" stroke="none" d="M 40 35 C 40 37.761429 37.761425 40 35 40 C 32.238575 40 30 37.761429 30 35 C 30 32.238571 32.238575 30 35 30 C 37.761425 30 40 32.238571 40 35 Z"/>
        <path id="path25" fill="#34d399" stroke="none" d="M 10 35 C 10 37.761429 7.761424 40 5 40 C 2.238576 40 0 37.761429 0 35 C -0 32.238571 2.238576 30 5 30 C 7.761424 30 10 32.238571 10 35 Z"/>
    </g>
    <path id="path26" fill="#1e3a8a" stroke="none" d="M 370 65 C 370 67.761421 367.761414 70 365 70 C 362.238586 70 360 67.761421 360 65 C 360 62.238571 362.238586 60 365 60 C 367.761414 60 370 62.238571 370 65 Z"/>
    <path id="path27" fill="#1e3a8a" stroke="none" d="M 340 65 C 340 67.761421 337.761414 70 335 70 C 332.238586 70 330 67.761421 330 65 C 330 62.238571 332.238586 60 335 60 C 337.761414 60 340 62.238571 340 65 Z"/>
    <path id="path28" fill="#1e3a8a" stroke="none" d="M 310 65 C 310 67.761421 307.761414 70 305 70 C 302.238586 70 300 67.761421 300 65 C 300 62.238571 302.238586 60 305 60 C 307.761414 60 310 62.238571 310 65 Z"/>
    <path id="path29" fill="#1e3a8a" stroke="none" d="M 280 65 C 280 67.761421 277.761414 70 275 70 C 272.238586 70 270 67.761421 270 65 C 270 62.238571 272.238586 60 275 60 C 277.761414 60 280 62.238571 280 65 Z"/>
    <path id="path30" fill="#1e3a8a" stroke="none" d="M 250 65 C 250 67.761421 247.761429 70 245 70 C 242.238571 70 240 67.761421 240 65 C 240 62.238571 242.238571 60 245 60 C 247.761429 60 250 62.238571 250 65 Z"/>
    <path id="path31" fill="#1e3a8a" stroke="none" d="M 220 65 C 220 67.761421 217.761429 70 215 70 C 212.238571 70 210 67.761421 210 65 C 210 62.238571 212.238571 60 215 60 C 217.761429 60 220 62.238571 220 65 Z"/>
    <path id="path32" fill="#f3f4f6" stroke="none" d="M 190 65 C 190 67.761421 187.761429 70 185 70 C 182.238571 70 180 67.761421 180 65 C 180 62.238571 182.238571 60 185 60 C 187.761429 60 190 62.238571 190 65 Z"/>
    <path id="path33" fill="#f3f4f6" stroke="none" d="M 160 65 C 160 67.761421 157.761429 70 155 70 C 152.238571 70 150 67.761421 150 65 C 150 62.238571 152.238571 60 155 60 C 157.761429 60 160 62.238571 160 65 Z"/>
    <path id="path34" fill="#f3f4f6" stroke="none" d="M 130 65 C 130 67.761421 127.761421 70 125 70 C 122.238579 70 120 67.761421 120 65 C 120 62.238571 122.238579 60 125 60 C 127.761421 60 130 62.238571 130 65 Z"/>
    <path id="path35" fill="#f3f4f6" stroke="none" d="M 100 65 C 100 67.761421 97.761421 70 95 70 C 92.238579 70 90 67.761421 90 65 C 90 62.238571 92.238579 60 95 60 C 97.761421 60 100 62.238571 100 65 Z"/>
    <path id="path36" fill="#f3f4f6" stroke="none" d="M 70 65 C 70 67.761421 67.761421 70 65 70 C 62.238575 70 60 67.761421 60 65 C 60 62.238571 62.238575 60 65 60 C 67.761421 60 70 62.238571 70 65 Z"/>
    <path id="path37" fill="#f3f4f6" stroke="none" d="M 40 65 C 40 67.761421 37.761425 70 35 70 C 32.238575 70 30 67.761421 30 65 C 30 62.238571 32.238575 60 35 60 C 37.761425 60 40 62.238571 40 65 Z"/>
    <path id="path38" fill="#f3f4f6" stroke="none" d="M 10 65 C 10 67.761421 7.761424 70 5 70 C 2.238576 70 0 67.761421 0 65 C -0 62.238571 2.238576 60 5 60 C 7.761424 60 10 62.238571 10 65 Z"/>
    <path id="path39" fill="#1e3a8a" stroke="none" d="M 370 95 C 370 97.761421 367.761414 100 365 100 C 362.238586 100 360 97.761421 360 95 C 360 92.238579 362.238586 90 365 90 C 367.761414 90 370 92.238579 370 95 Z"/>
    <path id="path40" fill="#1e3a8a" stroke="none" d="M 340 95 C 340 97.761421 337.761414 100 335 100 C 332.238586 100 330 97.761421 330 95 C 330 92.238579 332.238586 90 335 90 C 337.761414 90 340 92.238579 340 95 Z"/>
    <path id="path41" fill="#1e3a8a" stroke="none" d="M 310 95 C 310 97.761421 307.761414 100 305 100 C 302.238586 100 300 97.761421 300 95 C 300 92.238579 302.238586 90 305 90 C 307.761414 90 310 92.238579 310 95 Z"/>
    <path id="path42" fill="#1e3a8a" stroke="none" d="M 280 95 C 280 97.761421 277.761414 100 275 100 C 272.238586 100 270 97.761421 270 95 C 270 92.238579 272.238586 90 275 90 C 277.761414 90 280 92.238579 280 95 Z"/>
    <path id="path43" fill="#1e3a8a" stroke="none" d="M 250 95 C 250 97.761421 247.761429 100 245 100 C 242.238571 100 240 97.761421 240 95 C 240 92.238579 242.238571 90 245 90 C 247.761429 90 250 92.238579 250 95 Z"/>
    <path id="path44" fill="#1e3a8a" stroke="none" d="M 220 95 C 220 97.761421 217.761429 100 215 100 C 212.238571 100 210 97.761421 210 95 C 210 92.238579 212.238571 90 215 90 C 217.761429 90 220 92.238579 220 95 Z"/>
    <path id="path45" fill="#f3f4f6" stroke="none" d="M 190 95 C 190 97.761421 187.761429 100 185 100 C 182.238571 100 180 97.761421 180 95 C 180 92.238579 182.238571 90 185 90 C 187.761429 90 190 92.238579 190 95 Z"/>
    <path id="path46" fill="#f3f4f6" stroke="none" d="M 160 95 C 160 97.761421 157.761429 100 155 100 C 152.238571 100 150 97.761421 150 95 C 150 92.238579 152.238571 90 155 90 C 157.761429 90 160 92.238579 160 95 Z"/>
    <path id="path47" fill="#f3f4f6" stroke="none" d="M 130 95 C 130 97.761421 127.761421 100 125 100 C 122.238579 100 120 97.761421 120 95 C 120 92.238579 122.238579 90 125 90 C 127.761421 90 130 92.238579 130 95 Z"/>
    <path id="path48" fill="#f3f4f6" stroke="none" d="M 100 95 C 100 97.761421 97.761421 100 95 100 C 92.238579 100 90 97.761421 90 95 C 90 92.238579 92.238579 90 95 90 C 97.761421 90 100 92.238579 100 95 Z"/>
    <path id="path49" fill="#f3f4f6" stroke="none" d="M 70 95 C 70 97.761421 67.761421 100 65 100 C 62.238575 100 60 97.761421 60 95 C 60 92.238579 62.238575 90 65 90 C 67.761421 90 70 92.238579 70 95 Z"/>
    <path id="path50" fill="#f3f4f6" stroke="none" d="M 40 95 C 40 97.761421 37.761425 100 35 100 C 32.238575 100 30 97.761421 30 95 C 30 92.238579 32.238575 90 35 90 C 37.761425 90 40 92.238579 40 95 Z"/>
    <path id="path51" fill="#f3f4f6" stroke="none" d="M 10 95 C 10 97.761421 7.761424 100 5 100 C 2.238576 100 0 97.761421 0 95 C -0 92.238579 2.238576 90 5 90 C 7.761424 90 10 92.238579 10 95 Z"/>
    <path id="path52" fill="#1e3a8a" stroke="none" d="M 370 125 C 370 127.761421 367.761414 130 365 130 C 362.238586 130 360 127.761421 360 125 C 360 122.238579 362.238586 120 365 120 C 367.761414 120 370 122.238579 370 125 Z"/>
    <path id="path53" fill="#1e3a8a" stroke="none" d="M 340 125 C 340 127.761421 337.761414 130 335 130 C 332.238586 130 330 127.761421 330 125 C 330 122.238579 332.238586 120 335 120 C 337.761414 120 340 122.238579 340 125 Z"/>
    <path id="path54" fill="#1e3a8a" stroke="none" d="M 310 125 C 310 127.761421 307.761414 130 305 130 C 302.238586 130 300 127.761421 300 125 C 300 122.238579 302.238586 120 305 120 C 307.761414 120 310 122.238579 310 125 Z"/>
    <path id="path55" fill="#1e3a8a" stroke="none" d="M 280 125 C 280 127.761421 277.761414 130 275 130 C 272.238586 130 270 127.761421 270 125 C 270 122.238579 272.238586 120 275 120 C 277.761414 120 280 122.238579 280 125 Z"/>
    <path id="path56" fill="#1e3a8a" stroke="none" d="M 250 125 C 250 127.761421 247.761429 130 245 130 C 242.238571 130 240 127.761421 240 125 C 240 122.238579 242.238571 120 245 120 C 247.761429 120 250 122.238579 250 125 Z"/>
    <path id="path57" fill="#1e3a8a" stroke="none" d="M 220 125 C 220 127.761421 217.761429 130 215 130 C 212.238571 130 210 127.761421 210 125 C 210 122.238579 212.238571 120 215 120 C 217.761429 120 220 122.238579 220 125 Z"/>
    <path id="path58" fill="#1e3a8a" stroke="none" d="M 190 125 C 190 127.761421 187.761429 130 185 130 C 182.238571 130 180 127.761421 180 125 C 180 122.238579 182.238571 120 185 120 C 187.761429 120 190 122.238579 190 125 Z"/>
    <path id="path59" fill="#f3f4f6" stroke="none" d="M 160 125 C 160 127.761421 157.761429 130 155 130 C 152.238571 130 150 127.761421 150 125 C 150 122.238579 152.238571 120 155 120 C 157.761429 120 160 122.238579 160 125 Z"/>
    <path id="path60" fill="#f3f4f6" stroke="none" d="M 130 125 C 130 127.761421 127.761421 130 125 130 C 122.238579 130 120 127.761421 120 125 C 120 122.238579 122.238579 120 125 120 C 127.761421 120 130 122.238579 130 125 Z"/>
    <path id="path61" fill="#f3f4f6" stroke="none" d="M 100 125 C 100 127.761421 97.761421 130 95 130 C 92.238579 130 90 127.761421 90 125 C 90 122.238579 92.238579 120 95 120 C 97.761421 120 100 122.238579 100 125 Z"/>
    <path id="path62" fill="#f3f4f6" stroke="none" d="M 70 125 C 70 127.761421 67.761421 130 65 130 C 62.238575 130 60 127.761421 60 125 C 60 122.238579 62.238575 120 65 120 C 67.761421 120 70 122.238579 70 125 Z"/>
    <path id="path63" fill="#f3f4f6" stroke="none" d="M 40 125 C 40 127.761421 37.761425 130 35 130 C 32.238575 130 30 127.761421 30 125 C 30 122.238579 32.238575 120 35 120 C 37.761425 120 40 122.238579 40 125 Z"/>
    <path id="path64" fill="#f3f4f6" stroke="none" d="M 10 125 C 10 127.761421 7.761424 130 5 130 C 2.238576 130 0 127.761421 0 125 C -0 122.238579 2.238576 120 5 120 C 7.761424 120 10 122.238579 10 125 Z"/>
    <path id="path65" fill="#1e3a8a" stroke="none" d="M 370 155 C 370 157.761429 367.761414 160 365 160 C 362.238586 160 360 157.761429 360 155 C 360 152.238571 362.238586 150 365 150 C 367.761414 150 370 152.238571 370 155 Z"/>
    <path id="path66" fill="#1e3a8a" stroke="none" d="M 340 155 C 340 157.761429 337.761414 160 335 160 C 332.238586 160 330 157.761429 330 155 C 330 152.238571 332.238586 150 335 150 C 337.761414 150 340 152.238571 340 155 Z"/>
    <path id="path67" fill="#1e3a8a" stroke="none" d="M 310 155 C 310 157.761429 307.761414 160 305 160 C 302.238586 160 300 157.761429 300 155 C 300 152.238571 302.238586 150 305 150 C 307.761414 150 310 152.238571 310 155 Z"/>
    <path id="path68" fill="#1e3a8a" stroke="none" d="M 280 155 C 280 157.761429 277.761414 160 275 160 C 272.238586 160 270 157.761429 270 155 C 270 152.238571 272.238586 150 275 150 C 277.761414 150 280 152.238571 280 155 Z"/>
    <path id="path69" fill="#1e3a8a" stroke="none" d="M 250 155 C 250 157.761429 247.761429 160 245 160 C 242.238571 160 240 157.761429 240 155 C 240 152.238571 242.238571 150 245 150 C 247.761429 150 250 152.238571 250 155 Z"/>
    <path id="path70" fill="#1e3a8a" stroke="none" d="M 220 155 C 220 157.761429 217.761429 160 215 160 C 212.238571 160 210 157.761429 210 155 C 210 152.238571 212.238571 150 215 150 C 217.761429 150 220 152.238571 220 155 Z"/>
    <path id="path71" fill="#1e3a8a" stroke="none" d="M 190 155 C 190 157.761429 187.761429 160 185 160 C 182.238571 160 180 157.761429 180 155 C 180 152.238571 182.238571 150 185 150 C 187.761429 150 190 152.238571 190 155 Z"/>
    <path id="path72" fill="#1e3a8a" stroke="none" d="M 160 155 C 160 157.761429 157.761429 160 155 160 C 152.238571 160 150 157.761429 150 155 C 150 152.238571 152.238571 150 155 150 C 157.761429 150 160 152.238571 160 155 Z"/>
    <path id="path73" fill="#f3f4f6" stroke="none" d="M 130 155 C 130 157.761429 127.761421 160 125 160 C 122.238579 160 120 157.761429 120 155 C 120 152.238571 122.238579 150 125 150 C 127.761421 150 130 152.238571 130 155 Z"/>
    <path id="path74" fill="#f3f4f6" stroke="none" d="M 100 155 C 100 157.761429 97.761421 160 95 160 C 92.238579 160 90 157.761429 90 155 C 90 152.238571 92.238579 150 95 150 C 97.761421 150 100 152.238571 100 155 Z"/>
    <path id="path75" fill="#f3f4f6" stroke="none" d="M 70 155 C 70 157.761429 67.761421 160 65 160 C 62.238575 160 60 157.761429 60 155 C 60 152.238571 62.238575 150 65 150 C 67.761421 150 70 152.238571 70 155 Z"/>
    <path id="path76" fill="#f3f4f6" stroke="none" d="M 40 155 C 40 157.761429 37.761425 160 35 160 C 32.238575 160 30 157.761429 30 155 C 30 152.238571 32.238575 150 35 150 C 37.761425 150 40 152.238571 40 155 Z"/>
    <path id="path77" fill="#f3f4f6" stroke="none" d="M 10 155 C 10 157.761429 7.761424 160 5 160 C 2.238576 160 0 157.761429 0 155 C -0 152.238571 2.238576 150 5 150 C 7.761424 150 10 152.238571 10 155 Z"/>
</svg>
