<?xml version="1.0" encoding="utf-8"?>
<!-- Generator: Adobe Illustrator 27.8.1, SVG Export Plug-In . SVG Version: 6.00 Build 0)  -->
<svg 
	version="1.1" 
	id="Capa_1" 
	xmlns="http://www.w3.org/2000/svg" 
	xmlns:xlink="http://www.w3.org/1999/xlink"
	viewBox="0 0 2000 400" 
    height="150"
    width="350">
<style type="text/css">
	.st0{fill:#020203;}
	.st1{fill:#FFFFFF;}
	.st2{fill-rule:evenodd;clip-rule:evenodd;fill:#020203;}
</style>
<g fill='#FFFFFF'>
	<path d="M551.57,298.28c-11.07,0-20.45-1.92-28.15-5.75c-7.7-3.83-14.25-8.79-19.67-14.88l18.04-18.44
		c8.54,9.64,19.06,14.45,31.57,14.45c6.73,0,11.73-1.38,14.98-4.15c3.25-2.77,4.87-6.44,4.87-11.02c0-3.49-0.96-6.41-2.89-8.76
		c-1.93-2.35-5.84-3.94-11.73-4.79l-12.45-1.63c-13.35-1.7-23.12-5.78-29.32-12.23c-6.2-6.45-9.29-15.03-9.29-25.74
		c0-5.72,1.08-10.95,3.25-15.7c2.17-4.75,5.26-8.82,9.29-12.23c4.03-3.41,8.96-6.06,14.79-7.94c5.83-1.89,12.48-2.83,19.94-2.83
		c9.5,0,17.86,1.52,25.08,4.57s13.41,7.49,18.58,13.33l-18.22,18.63c-3.01-3.49-6.65-6.34-10.92-8.57
		c-4.27-2.22-9.65-3.34-16.15-3.34c-6.13,0-10.71,1.08-13.71,3.25c-3.01,2.17-4.51,5.17-4.51,9.02c0,4.33,1.17,7.46,3.52,9.39
		c2.35,1.93,6.16,3.31,11.46,4.15l12.45,2.01c12.99,2.07,22.61,6.12,28.87,12.14c6.25,6.02,9.38,14.57,9.38,25.64
		c0,6.08-1.08,11.68-3.25,16.79s-5.32,9.49-9.47,13.14c-4.15,3.65-9.29,6.48-15.43,8.49C566.37,297.27,559.39,298.28,551.57,298.28z
		"/>
	<path d="M618.51,296.09v-22.06h16.24v-83.13h-16.24v-22.06h59.9v22.06h-16.24v83.13h16.24v22.06H618.51z"/>
	<path d="M795.5,212.59h-0.54l-9.2,18.6l-24.54,45.03l-24-44.85l-9.56-20.05h-0.54v84.77h-25.8V168.84h29.05l30.85,59.62h0.36
		l30.49-59.62h29.23v127.25h-25.8V212.59z"/>
	<path d="M849.08,296.09V168.84h59.54c5.89,0,11.19,1,15.88,3.01c4.69,2.01,8.69,4.77,12,8.29c3.31,3.53,5.86,7.81,7.67,12.85
		c1.8,5.05,2.71,10.55,2.71,16.5c0,6.08-0.9,11.61-2.71,16.59c-1.8,4.99-4.36,9.24-7.67,12.76c-3.31,3.53-7.31,6.29-12,8.3
		c-4.69,2.01-9.99,3.01-15.88,3.01h-32.12v45.94H849.08z M876.51,226.08h28.87c4.09,0,7.31-1.06,9.65-3.19
		c2.34-2.13,3.52-5.26,3.52-9.39v-8.02c0-4.13-1.17-7.26-3.52-9.39c-2.35-2.13-5.57-3.19-9.65-3.19h-28.87V226.08z"/>
	<path d="M967.44,296.09V168.84h27.42v102.64h47.99v24.61H967.44z"/>
	<path d="M1063.06,296.09V168.84h85.7v24.61h-58.28v25.89h49.98v24.61h-49.98v27.53h58.28v24.61H1063.06z"/>
	<path d="M1210.83,298.28c-10.23,0-18.94-1.98-26.16-5.93c-7.22-3.95-13.35-9.39-18.4-16.32l11.19-9.48
		c4.45,5.96,9.38,10.48,14.79,13.58c5.41,3.1,11.79,4.65,19.12,4.65c9.02,0,15.91-2.19,20.66-6.56c4.75-4.37,7.13-10.21,7.13-17.5
		c0-6.08-1.8-10.76-5.41-14.04c-3.61-3.28-9.56-5.89-17.86-7.84l-10.28-2.37c-11.55-2.67-20.36-6.71-26.43-12.12
		c-6.08-5.41-9.11-13.03-9.11-22.88c0-5.59,1.02-10.57,3.07-14.95c2.04-4.38,4.9-8.02,8.57-10.94c3.67-2.92,8.06-5.13,13.17-6.65
		c5.11-1.52,10.73-2.28,16.87-2.28c9.5,0,17.65,1.76,24.45,5.29c6.79,3.53,12.54,8.69,17.23,15.5l-11.37,8.39
		c-3.49-4.86-7.7-8.69-12.63-11.49c-4.93-2.79-11.07-4.19-18.4-4.19c-8.06,0-14.41,1.73-19.03,5.2c-4.63,3.46-6.95,8.66-6.95,15.59
		c0,6.08,1.95,10.67,5.86,13.76c3.91,3.1,9.83,5.56,17.77,7.38l10.28,2.37c12.39,2.8,21.35,7.05,26.88,12.76
		c5.53,5.71,8.3,13.31,8.3,22.79c0,5.83-0.99,11.12-2.98,15.86c-1.98,4.74-4.84,8.75-8.57,12.03c-3.73,3.28-8.27,5.83-13.62,7.66
		C1223.61,297.36,1217.56,298.28,1210.83,298.28z"/>
	<path d="M1294.54,168.84v78.88c0,12.17,2.22,21.4,6.68,27.66c4.45,6.27,12.27,9.4,23.46,9.4s19-3.13,23.46-9.4
		c4.45-6.27,6.67-15.49,6.67-27.66v-78.88h15.16v75.11c0,9.24-0.81,17.26-2.44,24.06c-1.62,6.81-4.24,12.46-7.85,16.96
		c-3.61,4.5-8.33,7.84-14.16,10.03c-5.84,2.19-12.96,3.28-21.38,3.28c-8.42,0-15.49-1.09-21.2-3.28
		c-5.71-2.19-10.31-5.53-13.8-10.03c-3.49-4.5-5.99-10.15-7.49-16.96c-1.51-6.81-2.26-14.83-2.26-24.06v-75.11H1294.54z"/>
	<path d="M1402.61,296.09V168.84h76.86v13.49h-61.7v42.66h58.1v13.49h-58.1v44.12h61.7v13.49H1402.61z"/>
	<path d="M1507.8,296.09V168.84h15.16V282.6h53.59v13.49H1507.8z"/>
	<path d="M1598.19,168.84h42.22c7.82,0,14.91,1.34,21.29,4.01c6.37,2.68,11.82,6.65,16.33,11.94c4.51,5.29,7.97,11.91,10.37,19.87
		c2.41,7.96,3.61,17.23,3.61,27.8c0,10.57-1.2,19.84-3.61,27.8c-2.41,7.96-5.86,14.59-10.37,19.87c-4.51,5.29-9.95,9.27-16.33,11.94
		c-6.38,2.68-13.47,4.01-21.29,4.01h-42.22V168.84z M1640.41,282.6c5.17,0,9.92-0.88,14.25-2.64c4.33-1.76,8.06-4.34,11.19-7.75
		c3.13-3.4,5.56-7.57,7.31-12.49c1.74-4.92,2.62-10.54,2.62-16.86v-20.78c0-6.32-0.87-11.94-2.62-16.86
		c-1.75-4.92-4.18-9.08-7.31-12.49c-3.13-3.4-6.86-5.98-11.19-7.75c-4.33-1.76-9.08-2.64-14.25-2.64h-27.06V282.6H1640.41z"/>
	<path d="M1766.34,298.28c-8.18,0-15.55-1.43-22.1-4.28c-6.56-2.85-12.15-7.05-16.78-12.58c-4.63-5.53-8.21-12.4-10.74-20.6
		c-2.53-8.2-3.79-17.65-3.79-28.35c0-10.69,1.26-20.11,3.79-28.26c2.53-8.14,6.1-15.01,10.74-20.6c4.63-5.59,10.22-9.81,16.78-12.67
		c6.55-2.85,13.92-4.28,22.1-4.28c8.06,0,15.4,1.43,22.01,4.28c6.61,2.86,12.24,7.08,16.87,12.67c4.63,5.59,8.21,12.46,10.74,20.6
		c2.53,8.14,3.79,17.56,3.79,28.26c0,10.7-1.26,20.15-3.79,28.35c-2.53,8.2-6.11,15.07-10.74,20.6
		c-4.63,5.53-10.26,9.72-16.87,12.58C1781.74,296.84,1774.4,298.28,1766.34,298.28z M1766.34,284.78c5.41,0,10.4-0.97,14.98-2.93
		c4.57-1.95,8.51-4.76,11.82-8.42c3.31-3.66,5.86-8.05,7.67-13.17c1.8-5.12,2.71-10.85,2.71-17.2v-21.22c0-6.34-0.9-12.07-2.71-17.2
		c-1.8-5.12-4.36-9.51-7.67-13.17c-3.31-3.66-7.25-6.46-11.82-8.41c-4.57-1.95-9.56-2.93-14.98-2.93c-5.41,0-10.4,0.98-14.97,2.93
		c-4.57,1.95-8.51,4.76-11.82,8.41c-3.31,3.66-5.86,8.05-7.67,13.17c-1.8,5.12-2.71,10.86-2.71,17.2v21.22
		c0,6.34,0.9,12.07,2.71,17.2c1.8,5.12,4.36,9.51,7.67,13.17c3.31,3.66,7.25,6.47,11.82,8.42
		C1755.94,283.81,1760.93,284.78,1766.34,284.78z"/>
</g>
<g>
	<g>
		<path class="st0" d="M471.96,233.35c-116.89-13.3-201.8-85.54-218.13-203.27C195.06,82.22,147.07,116.7,94.44,165.54
			c3.32,23.9,10.92,46.81,20.63,68.18l-88.82,59.95c0,0,157.21,24.15,257.87,116.56c8.17-13.66,14.68-25.72,14.68-25.72
			s-0.23-0.09-0.59-0.24c8.05,1.7,16.16,3.15,24.46,4.11C372.42,336.69,422.2,285.02,471.96,233.35z"/>
		<path class="st1" d="M106.69,170.52c48.71-44.33,88.76-72.89,140.18-117.58c20.56,106.46,96.24,169.62,202.12,187.49
			c-43.97,45.65-87.96,91.31-131.93,136.97C211.19,359.53,127.23,276.98,106.69,170.52z"/>
	</g>
	<path class="st2" d="M423.06,108.19c-38.09-5.89-36.72-6.59-42.21-44.73l-3.09-20.8l-3.09,21.15c-4.8,38.14-4.46,38.83-42.21,44.38
		l-22.65,3.47l21.96,3.12c37.4,5.55,37.4,5.2,42.89,42.99l3.43,22.88l3.09-22.19c5.49-37.79,4.8-37.79,42.21-43.34l22.65-3.47
		L423.06,108.19z"/>
</g>
</svg>