<?xml version="1.0" encoding="utf-8"?>
<!-- Generator: Adobe Illustrator 27.8.1, SVG Export Plug-In . SVG Version: 6.00 Build 0)  -->
<svg 
    version="1.1" 
    id="Capa_1" 
    xmlns="http://www.w3.org/2000/svg" 
    xmlns:xlink="http://www.w3.org/1999/xlink"
	viewBox="0 0 1869 388.52" 
    style="enable-background:new 0 0 1869 388.52;"
    height="150"
    width="350">
<style type="text/css">
	.st0{fill:#020203;}
	.st1{fill:#FFFFFF;}
	.st2{fill-rule:evenodd;clip-rule:evenodd;fill:#020203;}
</style>
<g fill='#FFFFFF'>
	<g>
		<g>
			<path class="st0" d="M444.23,207.1c-113.71-12.94-196.3-83.21-212.2-197.73C174.86,60.08,128.18,93.62,76.98,141.14
				c3.23,23.25,10.62,45.53,20.06,66.32l-86.4,58.31c0,0,152.94,23.49,250.85,113.39c7.95-13.29,14.28-25.02,14.28-25.02
				s-0.23-0.09-0.57-0.23c7.83,1.65,15.72,3.07,23.79,4C347.4,307.62,395.82,257.36,444.23,207.1z"/>
			<path class="st1" d="M88.9,145.98c47.38-43.12,86.35-70.91,136.36-114.38c20,103.56,93.62,165.01,196.62,182.39
				c-42.77,44.4-85.57,88.83-128.34,133.24C190.55,329.85,108.88,249.54,88.9,145.98z"/>
		</g>
		<path class="st2" d="M396.66,85.35c-37.05-5.73-35.72-6.41-41.06-43.51l-3-20.24l-3,20.58c-4.67,37.1-4.34,37.78-41.06,43.17
			l-22.03,3.37l21.36,3.04c36.38,5.4,36.38,5.06,41.73,41.82l3.34,22.26l3-21.59c5.34-36.77,4.67-36.77,41.06-42.16l22.03-3.37
			L396.66,85.35z"/>
	</g>
</g>
</svg>
