<?xml version="1.0" encoding="utf-8"?>
<!-- Generator: Adobe Illustrator 27.8.1, SVG Export Plug-In . SVG Version: 6.00 Build 0)  -->
<svg 
    version="1.1" 
    id="Capa_1" 
    xmlns="http://www.w3.org/2000/svg" 
    xmlns:xlink="http://www.w3.org/1999/xlink"
	viewBox="0 0 1869 388.52" 
    style="enable-background:new 0 0 1869 388.52;" 
    xml:space="preserve"
    height="150"
    width="350">
<style type="text/css">
	.st0{fill:#020203;}
	.st1{fill:#FFFFFF;}
	.st2{fill-rule:evenodd;clip-rule:evenodd;fill:#020203;}
</style>
<g fill='#020203'>
	<g>
		<path d="M521.67,270.26c-10.77,0-19.89-1.86-27.38-5.59c-7.49-3.73-13.86-8.55-19.13-14.48l17.55-17.93
			c8.31,9.38,18.54,14.06,30.71,14.06c6.55,0,11.41-1.35,14.57-4.04c3.16-2.69,4.74-6.27,4.74-10.72c0-3.4-0.94-6.24-2.81-8.52
			c-1.87-2.28-5.68-3.84-11.41-4.66l-12.11-1.58c-12.99-1.66-22.5-5.62-28.52-11.9c-6.03-6.27-9.04-14.62-9.04-25.04
			c0-5.56,1.05-10.65,3.16-15.27c2.11-4.62,5.12-8.58,9.04-11.9c3.92-3.31,8.72-5.89,14.39-7.73c5.67-1.83,12.14-2.75,19.39-2.75
			c9.24,0,17.38,1.48,24.4,4.44c7.02,2.96,13.05,7.28,18.08,12.97l-17.73,18.12c-2.93-3.39-6.47-6.17-10.62-8.34
			c-4.15-2.16-9.39-3.25-15.71-3.25c-5.97,0-10.42,1.05-13.34,3.16c-2.93,2.11-4.39,5.03-4.39,8.78c0,4.21,1.14,7.26,3.42,9.13
			c2.28,1.87,5.99,3.22,11.15,4.03l12.11,1.95c12.64,2.01,22,5.95,28.08,11.81c6.08,5.86,9.13,14.18,9.13,24.94
			c0,5.92-1.05,11.36-3.16,16.33c-2.11,4.97-5.18,9.23-9.21,12.78c-4.04,3.55-9.04,6.3-15.01,8.25
			C536.06,269.28,529.28,270.26,521.67,270.26z"/>
		<path d="M586.79,268.13v-21.46h15.8V165.8h-15.8v-21.46h58.27v21.46h-15.8v80.87h15.8v21.46H586.79z"/>
		<path d="M758.96,186.9h-0.53l-8.95,18.09l-23.87,43.8l-23.34-43.63l-9.3-19.51h-0.53v82.47h-25.1V144.34h28.26l30.01,57.99h0.35
			l29.66-57.99h28.43v123.79h-25.1V186.9z"/>
		<path d="M811.09,268.13V144.34h57.92c5.73,0,10.88,0.97,15.44,2.93c4.56,1.95,8.45,4.64,11.67,8.07c3.22,3.43,5.7,7.6,7.46,12.5
			c1.76,4.91,2.63,10.26,2.63,16.05c0,5.91-0.88,11.29-2.63,16.14c-1.75,4.85-4.24,8.99-7.46,12.41c-3.22,3.43-7.11,6.12-11.67,8.07
			c-4.56,1.95-9.71,2.93-15.44,2.93h-31.24v44.69H811.09z M837.76,200.02h28.08c3.98,0,7.11-1.03,9.39-3.1
			c2.28-2.07,3.42-5.11,3.42-9.13v-7.8c0-4.02-1.14-7.06-3.42-9.13c-2.28-2.07-5.41-3.1-9.39-3.1h-28.08V200.02z"/>
		<path d="M926.22,268.13V144.34h26.68v99.85h46.69v23.94H926.22z"/>
		<path d="M1019.24,268.13V144.34h83.37v23.94h-56.69v25.18h48.62v23.94h-48.62v26.78h56.69v23.94H1019.24z"/>
		<path d="M1162.99,270.26c-9.95,0-18.43-1.92-25.45-5.76c-7.02-3.84-12.99-9.13-17.9-15.87l10.88-9.22
			c4.33,5.79,9.13,10.2,14.39,13.21c5.27,3.02,11.47,4.52,18.6,4.52c8.78,0,15.47-2.13,20.1-6.39c4.62-4.26,6.93-9.93,6.93-17.03
			c0-5.91-1.76-10.46-5.27-13.66c-3.51-3.19-9.3-5.73-17.38-7.63l-10-2.31c-11.23-2.6-19.81-6.53-25.71-11.79
			c-5.91-5.26-8.86-12.68-8.86-22.26c0-5.44,0.99-10.29,2.98-14.54c1.99-4.26,4.77-7.8,8.34-10.64c3.57-2.84,7.84-4.99,12.81-6.47
			c4.97-1.48,10.44-2.22,16.41-2.22c9.24,0,17.17,1.72,23.78,5.14c6.61,3.43,12.2,8.45,16.76,15.08l-11.06,8.16
			c-3.4-4.73-7.49-8.45-12.29-11.17c-4.8-2.72-10.77-4.08-17.9-4.08c-7.84,0-14.01,1.68-18.52,5.05c-4.51,3.37-6.76,8.42-6.76,15.16
			c0,5.91,1.9,10.38,5.7,13.39c3.8,3.02,9.57,5.41,17.29,7.18l10,2.31c12.05,2.72,20.77,6.86,26.15,12.41
			c5.38,5.56,8.07,12.95,8.07,22.17c0,5.68-0.97,10.82-2.9,15.43c-1.93,4.61-4.71,8.51-8.34,11.7c-3.63,3.19-8.05,5.68-13.25,7.45
			C1175.42,269.37,1169.54,270.26,1162.99,270.26z"/>
		<path d="M1244.42,144.34v76.74c0,11.84,2.16,20.81,6.49,26.91c4.33,6.1,11.94,9.15,22.82,9.15c10.88,0,18.49-3.05,22.82-9.15
			c4.33-6.1,6.49-15.07,6.49-26.91v-76.74h14.74v73.07c0,8.99-0.79,16.79-2.37,23.41c-1.58,6.62-4.12,12.12-7.63,16.49
			c-3.51,4.37-8.1,7.63-13.78,9.75c-5.68,2.13-12.61,3.19-20.8,3.19c-8.19,0-15.07-1.06-20.62-3.19
			c-5.56-2.13-10.03-5.38-13.43-9.75c-3.4-4.37-5.82-9.87-7.28-16.49c-1.46-6.62-2.19-14.42-2.19-23.41v-73.07H1244.42z"/>
		<path d="M1349.55,268.13V144.34h74.77v13.12h-60.02v41.5h56.51v13.12h-56.51V255h60.02v13.12H1349.55z"/>
		<path d="M1451.87,268.13V144.34h14.74V255h52.13v13.12H1451.87z"/>
		<path d="M1539.8,144.34h41.07c7.6,0,14.51,1.3,20.71,3.9c6.2,2.6,11.5,6.47,15.88,11.62c4.39,5.14,7.75,11.59,10.09,19.33
			c2.34,7.75,3.51,16.76,3.51,27.04s-1.17,19.3-3.51,27.05c-2.34,7.75-5.7,14.19-10.09,19.33c-4.39,5.14-9.68,9.02-15.88,11.62
			c-6.2,2.6-13.11,3.9-20.71,3.9h-41.07V144.34z M1580.87,255c5.03,0,9.65-0.86,13.87-2.57c4.21-1.71,7.84-4.23,10.88-7.54
			c3.04-3.31,5.41-7.36,7.11-12.15c1.69-4.79,2.54-10.26,2.54-16.4v-20.22c0-6.15-0.85-11.62-2.54-16.4
			c-1.7-4.79-4.07-8.84-7.11-12.15c-3.04-3.31-6.67-5.82-10.88-7.54c-4.21-1.71-8.84-2.57-13.87-2.57h-26.33V255H1580.87z"/>
		<path d="M1703.38,270.26c-7.96,0-15.12-1.39-21.5-4.17c-6.38-2.78-11.82-6.86-16.32-12.24c-4.51-5.38-7.99-12.06-10.44-20.04
			c-2.46-7.98-3.69-17.17-3.69-27.58c0-10.4,1.23-19.57,3.69-27.49c2.46-7.92,5.94-14.6,10.44-20.04c4.5-5.44,9.94-9.55,16.32-12.33
			c6.38-2.78,13.54-4.17,21.5-4.17c7.84,0,14.98,1.39,21.41,4.17c6.43,2.78,11.91,6.89,16.41,12.33c4.5,5.44,7.99,12.12,10.44,20.04
			c2.46,7.92,3.69,17.09,3.69,27.49c0,10.41-1.23,19.6-3.69,27.58c-2.46,7.98-5.94,14.66-10.44,20.04
			c-4.51,5.38-9.98,9.46-16.41,12.24C1718.36,268.86,1711.22,270.26,1703.38,270.26z M1703.38,257.13c5.27,0,10.12-0.95,14.57-2.85
			c4.45-1.9,8.28-4.63,11.5-8.19c3.22-3.56,5.7-7.83,7.46-12.81c1.76-4.98,2.63-10.56,2.63-16.73v-20.65
			c0-6.17-0.88-11.75-2.63-16.73c-1.75-4.98-4.24-9.25-7.46-12.81c-3.22-3.56-7.05-6.29-11.5-8.19c-4.45-1.9-9.3-2.85-14.57-2.85
			c-5.27,0-10.12,0.95-14.57,2.85c-4.45,1.9-8.28,4.63-11.5,8.19c-3.22,3.56-5.7,7.83-7.46,12.81c-1.75,4.98-2.63,10.56-2.63,16.73
			v20.65c0,6.17,0.88,11.75,2.63,16.73c1.76,4.98,4.24,9.25,7.46,12.81c3.22,3.56,7.05,6.29,11.5,8.19
			C1693.26,256.18,1698.11,257.13,1703.38,257.13z"/>
		<path d="M1816.23,270.26c-9.95,0-18.43-1.92-25.45-5.76c-7.02-3.84-12.99-9.13-17.9-15.87l10.88-9.22
			c4.33,5.79,9.13,10.2,14.39,13.21c5.27,3.02,11.47,4.52,18.6,4.52c8.78,0,15.47-2.13,20.1-6.39c4.62-4.26,6.93-9.93,6.93-17.03
			c0-5.91-1.76-10.46-5.27-13.66c-3.51-3.19-9.3-5.73-17.38-7.63l-10-2.31c-11.23-2.6-19.81-6.53-25.71-11.79
			c-5.91-5.26-8.86-12.68-8.86-22.26c0-5.44,0.99-10.29,2.98-14.54c1.99-4.26,4.77-7.8,8.34-10.64c3.57-2.84,7.84-4.99,12.81-6.47
			c4.97-1.48,10.44-2.22,16.41-2.22c9.24,0,17.17,1.72,23.78,5.14c6.61,3.43,12.2,8.45,16.76,15.08l-11.06,8.16
			c-3.4-4.73-7.49-8.45-12.29-11.17c-4.8-2.72-10.77-4.08-17.9-4.08c-7.84,0-14.01,1.68-18.52,5.05c-4.51,3.37-6.76,8.42-6.76,15.16
			c0,5.91,1.9,10.38,5.7,13.39c3.8,3.02,9.57,5.41,17.29,7.18l10,2.31c12.05,2.72,20.77,6.86,26.15,12.41
			c5.38,5.56,8.07,12.95,8.07,22.17c0,5.68-0.97,10.82-2.9,15.43c-1.93,4.61-4.71,8.51-8.34,11.7c-3.63,3.19-8.05,5.68-13.25,7.45
			C1828.67,269.37,1822.78,270.26,1816.23,270.26z"/>
	</g>
	<g>
		<g>
			<path class="st0" d="M444.23,207.1c-113.71-12.94-196.3-83.21-212.2-197.73C174.86,60.08,128.18,93.62,76.98,141.14
				c3.23,23.25,10.62,45.53,20.06,66.32l-86.4,58.31c0,0,152.94,23.49,250.85,113.39c7.95-13.29,14.28-25.02,14.28-25.02
				s-0.23-0.09-0.57-0.23c7.83,1.65,15.72,3.07,23.79,4C347.4,307.62,395.82,257.36,444.23,207.1z"/>
			<path class="st1" d="M88.9,145.98c47.38-43.12,86.35-70.91,136.36-114.38c20,103.56,93.62,165.01,196.62,182.39
				c-42.77,44.4-85.57,88.83-128.34,133.24C190.55,329.85,108.88,249.54,88.9,145.98z"/>
		</g>
		<path class="st2" d="M396.66,85.35c-37.05-5.73-35.72-6.41-41.06-43.51l-3-20.24l-3,20.58c-4.67,37.1-4.34,37.78-41.06,43.17
			l-22.03,3.37l21.36,3.04c36.38,5.4,36.38,5.06,41.73,41.82l3.34,22.26l3-21.59c5.34-36.77,4.67-36.77,41.06-42.16l22.03-3.37
			L396.66,85.35z"/>
	</g>
</g>
</svg>
